<?xml version="1.0" standalone="no"?>
<!DOCTYPE svg PUBLIC "-//W3C//DTD SVG 20010904//EN"
 "http://www.w3.org/TR/2001/REC-SVG-20010904/DTD/svg10.dtd">
<svg version="1.0" xmlns="http://www.w3.org/2000/svg"
 width="16.000000pt" height="16.000000pt" viewBox="0 0 16.000000 16.000000"
 preserveAspectRatio="xMidYMid meet">

<g transform="translate(0.000000,16.000000) scale(0.100000,-0.100000)"
fill="#000000" stroke="none">
<path d="M15 141 c-2 -5 -7 -25 -10 -47 -9 -58 10 -79 75 -79 65 0 84 21 75
79 -8 53 -11 56 -45 43 -22 -8 -38 -8 -60 0 -16 6 -32 8 -35 4z m122 -77 c8
-21 -22 -44 -57 -44 -35 0 -65 23 -57 44 9 23 105 23 114 0z"/>
<path d="M40 55 c0 -8 5 -15 10 -15 6 0 10 7 10 15 0 8 -4 15 -10 15 -5 0 -10
-7 -10 -15z"/>
<path d="M100 55 c0 -8 5 -15 10 -15 6 0 10 7 10 15 0 8 -4 15 -10 15 -5 0
-10 -7 -10 -15z"/>
</g>
</svg>
